<?xml version="1.0" encoding="UTF-8"?> <svg xmlns="http://www.w3.org/2000/svg" width="32" height="32" viewBox="0 0 32 32" fill="none"><path fill-rule="evenodd" clip-rule="evenodd" d="M22.7267 6.1907L23.6557 1.9767C23.7007 1.7747 23.6637 1.5667 23.5507 1.3917C23.4397 1.2167 23.2657 1.0967 23.0637 1.0517C22.6457 0.958703 22.2317 1.2247 22.1387 1.6427L21.2097 5.8567C21.1647 6.0597 21.2027 6.2667 21.3147 6.4417C21.4257 6.6167 21.5997 6.7367 21.8017 6.7817C21.8577 6.7947 21.9147 6.7997 21.9707 6.7997C22.1167 6.7997 22.2597 6.7577 22.3857 6.6777C22.5617 6.5667 22.6817 6.3937 22.7267 6.1907ZM25.0938 8.5688C24.9648 8.6508 24.8208 8.6898 24.6778 8.6898C24.4208 8.6898 24.1698 8.5638 24.0218 8.3328C23.9098 8.1588 23.8728 7.9518 23.9168 7.7478C23.9628 7.5428 24.0838 7.3708 24.2588 7.2588L27.8938 4.9368C28.0678 4.8248 28.2748 4.7888 28.4778 4.8328C28.6808 4.8768 28.8538 4.9988 28.9658 5.1728C29.0768 5.3478 29.1148 5.5558 29.0698 5.7578C29.0248 5.9608 28.9048 6.1338 28.7298 6.2458L25.0938 8.5688ZM13.4631 26.9737L20.2911 10.9427L4.05009 17.2477L9.01709 19.7707L3.42809 25.1527L5.50909 27.2787L11.0771 21.9157L13.4631 26.9737ZM2.96109 15.9807L20.3141 9.2977C20.8051 9.1137 21.3531 9.2337 21.7141 9.6077C22.0751 9.9837 22.1771 10.5367 21.9731 11.0167L14.6391 28.1077C14.4371 28.5767 13.9791 28.8847 13.4701 28.8917C12.9381 28.8897 12.4941 28.6117 12.2751 28.1487L10.5901 24.5727L6.40209 28.6047C6.15809 28.8387 5.84009 28.9657 5.50409 28.9657C5.14809 28.9657 4.81709 28.8257 4.57009 28.5707L2.11909 26.0257C1.88309 25.7797 1.75109 25.4427 1.75709 25.1017C1.76409 24.7557 1.90409 24.4337 2.15209 24.1937L6.34109 20.1607L2.83009 18.3397C2.37909 18.1067 2.10509 17.6277 2.13309 17.1197C2.16109 16.6117 2.48509 16.1647 2.96109 15.9807ZM25.4199 10.4063L29.6339 11.3353C30.0519 11.4273 30.3169 11.8423 30.2249 12.2603C30.1799 12.4633 30.0599 12.6363 29.8839 12.7473C29.7579 12.8273 29.6139 12.8693 29.4689 12.8693C29.4119 12.8693 29.3559 12.8633 29.2999 12.8513L25.0859 11.9233C24.6679 11.8313 24.4039 11.4153 24.4949 10.9973C24.5879 10.5793 25.0019 10.3123 25.4199 10.4063ZM24.0177 13.4534C23.9067 13.2784 23.7327 13.1574 23.5307 13.1134C23.3237 13.0654 23.1197 13.1064 22.9447 13.2174C22.7707 13.3284 22.6507 13.5014 22.6047 13.7034V13.7054C22.5607 13.9084 22.5977 14.1164 22.7077 14.2894L25.0317 17.9254C25.1437 18.0994 25.3167 18.2214 25.5197 18.2654C25.5757 18.2774 25.6317 18.2834 25.6877 18.2834C25.8337 18.2834 25.9777 18.2424 26.1037 18.1614C26.2787 18.0494 26.3997 17.8764 26.4447 17.6744C26.4887 17.4714 26.4517 17.2644 26.3397 17.0894L24.0177 13.4534ZM18.5506 7.3599C18.3486 7.3149 18.1746 7.1939 18.0636 7.0189L15.7406 3.3839C15.6286 3.2069 15.5916 2.9989 15.6366 2.7969C15.6826 2.5949 15.8026 2.4219 15.9766 2.3109C16.1516 2.1999 16.3586 2.1609 16.5616 2.2069C16.7646 2.2519 16.9376 2.3729 17.0486 2.5469L19.3726 6.1829C19.4836 6.3579 19.5206 6.5659 19.4756 6.7679C19.4306 6.9709 19.3106 7.1439 19.1356 7.2549C19.0096 7.3359 18.8656 7.3769 18.7186 7.3769C18.6636 7.3769 18.6076 7.3719 18.5506 7.3599Z" fill="black"></path></svg> 