<?xml version="1.0" encoding="UTF-8"?> <svg xmlns="http://www.w3.org/2000/svg" width="32" height="32" viewBox="0 0 32 32" fill="none"><path fill-rule="evenodd" clip-rule="evenodd" d="M20.8558 2.2476C19.9171 1.35994 18.8254 1.13582 17.8327 1.29054C17.3666 1.36358 16.9678 1.62376 16.6965 2.02191C16.2059 2.74417 16.1482 3.9091 16.3713 5.0326C16.5538 6.64764 16.1363 7.4858 14.4732 9.43777L14.2897 9.6539L13.8575 10.1725L13.6069 10.4864C13.1714 11.0441 11.3522 11.8344 9.75 12.285V12C9.75 11.5858 9.41421 11.25 9 11.25H2C1.58579 11.25 1.25 11.5858 1.25 12V30C1.25 30.4142 1.58579 30.75 2 30.75H9C9.41421 30.75 9.75 30.4142 9.75 30V29.5449C10.3271 29.5706 10.8807 29.6414 11.5229 29.7617C11.7149 29.7977 11.8775 29.8301 12.1294 29.8828L13.9975 30.2904C15.5963 30.6204 16.8883 30.75 19.0962 30.75H25.3056L25.4849 30.7449C27.1461 30.6499 28.461 29.2436 28.461 27.5354L28.454 27.3221C28.4172 26.757 28.2351 26.2219 27.9366 25.7633L27.905 25.718L27.983 25.6603C28.7445 25.0671 29.2244 24.1338 29.2244 23.1062L29.2179 22.8994C29.1877 22.4197 29.0529 21.9612 28.8308 21.5524L28.746 21.407L28.9272 21.2853C29.7281 20.6981 30.2415 19.7403 30.2415 18.6763L30.2349 18.4681C30.1954 17.8471 29.9807 17.2629 29.6299 16.7763L29.594 16.73L29.6792 16.6576C30.3431 16.0617 30.75 15.1922 30.75 14.2457L30.745 14.064C30.6523 12.3793 29.2795 11.0325 27.5954 11.0325L22.229 11.032L22.2674 10.882C22.3956 10.34 22.49 9.72005 22.5383 9.02015C22.7581 5.82346 22.2214 3.53728 20.8558 2.2476ZM9.75 28.0435C10.2855 28.0644 10.799 28.1192 11.3534 28.2092L11.9955 28.3249L13.1342 28.5638L13.6695 28.6845C15.3818 29.0715 16.5583 29.2299 18.6625 29.2482L19.0962 29.25H25.3056C26.2138 29.25 26.961 28.4843 26.961 27.5354C26.961 26.9577 26.6805 26.4289 26.2246 26.1121C25.6972 25.7456 25.8444 24.929 26.4665 24.7697C27.1958 24.5829 27.7244 23.8993 27.7244 23.1062C27.7244 22.5454 27.461 22.0303 27.0273 21.7093C26.4947 21.3151 26.6976 20.4744 27.3513 20.3665C28.1426 20.2359 28.7415 19.522 28.7415 18.6763C28.7415 18.0744 28.4372 17.5264 27.9505 17.2151C27.4214 16.8767 27.5178 16.0767 28.1121 15.8736C28.7829 15.6444 29.25 14.992 29.25 14.2457C29.25 13.3476 28.5796 12.6136 27.7373 12.5388L27.5954 12.5325H21.1933C20.6557 12.5325 20.2927 11.9835 20.5032 11.4888C20.7606 10.884 20.9647 10.0333 21.0419 8.91701C21.2339 6.1237 20.7948 4.25317 19.8256 3.33781C19.2705 2.81287 18.6383 2.68309 18.0643 2.77255C18.016 2.78012 17.9782 2.80478 17.9368 2.86558C17.7308 3.16884 17.6908 3.97607 17.8521 4.80117C18.0949 6.92084 17.5688 8.07717 15.8301 10.1559L15.1484 10.9641L14.9022 11.2665C14.8636 11.3149 14.826 11.3625 14.7891 11.4096C14.0607 12.3425 11.8367 13.2994 9.88144 13.8049L9.75 13.8373V28.0435ZM8.25 13.4421V12.75H2.75V29.25H8.25V28.5356V13.4421Z" fill="black"></path></svg> 