<?xml version="1.0" encoding="UTF-8"?> <svg xmlns="http://www.w3.org/2000/svg" width="32" height="32" viewBox="0 0 32 32" fill="none"><path fill-rule="evenodd" clip-rule="evenodd" d="M23.2841 27.5441C24.9621 27.5441 26.3281 26.1771 26.3281 24.4981V6.88711H5.6721V24.4981C5.6721 26.1771 7.0371 27.5441 8.7171 27.5441H23.2841ZM19.5461 5.44411C19.2501 3.75111 17.7771 2.45611 16.0001 2.45611C14.2231 2.45611 12.7501 3.75111 12.4541 5.44411H19.5461ZM16.0001 1.01511C18.5731 1.01511 20.6791 2.95511 20.9891 5.44411H27.7701V24.4981C27.7701 26.9731 25.7581 28.9851 23.2841 28.9851H8.7171C6.2421 28.9851 4.2291 26.9731 4.2291 24.4981V5.44411H11.0121C11.3221 2.95511 13.4271 1.01511 16.0001 1.01511ZM12.8741 14.9726C12.8741 15.6886 12.2941 16.2696 11.5781 16.2696C10.8621 16.2696 10.2821 15.6886 10.2821 14.9726C10.2821 14.2566 10.8621 13.6766 11.5781 13.6766C12.2941 13.6766 12.8741 14.2566 12.8741 14.9726ZM20.3042 16.2696C21.0202 16.2696 21.6002 15.6886 21.6002 14.9726C21.6002 14.2566 21.0202 13.6766 20.3042 13.6766C19.5882 13.6766 19.0082 14.2566 19.0082 14.9726C19.0082 15.6886 19.5882 16.2696 20.3042 16.2696ZM15.9347 21.6303C14.5797 21.6303 13.3637 20.8743 12.7627 19.6593C12.6097 19.3503 12.7357 18.9763 13.0447 18.8233C13.3497 18.6703 13.7287 18.7973 13.8807 19.1063C14.2707 19.8933 15.0577 20.3833 15.9347 20.3833C16.8227 20.3833 17.6127 19.8863 17.9997 19.0883C18.1067 18.8663 18.3287 18.7363 18.5607 18.7363C18.6517 18.7363 18.7447 18.7573 18.8327 18.7993C19.1427 18.9493 19.2727 19.3223 19.1217 19.6323C18.5337 20.8463 17.2837 21.6303 15.9347 21.6303Z" fill="black"></path></svg> 